<svg width="512" height="512" viewBox="0 0 512 512" fill="none" xmlns="http://www.w3.org/2000/svg">
<path d="M343.92 261.6C345.2 311.68 284 332 256 363.76C227.92 332 166.8 311.76 168.08 261.6C167.52 236.64 185.68 210.96 212 210.472C228.8 211.112 244.64 218.472 256 230.96C267.36 218.472 283.2 211.12 300 210.472C326.32 210.96 344.56 236.64 343.92 261.6Z" fill="black"/>
<path d="M88.864 385.848C86.568 385.848 84.288 384.864 82.704 382.968C19.688 307.176 26.936 195.312 99.208 128.288C102.448 125.288 107.512 125.464 110.52 128.72C113.52 131.952 113.336 137.016 110.096 140.024C44.056 201.264 37.432 303.488 95.008 372.736C97.832 376.136 97.368 381.184 93.968 384C92.48 385.24 90.664 385.848 88.864 385.848Z" fill="white"/>
<path d="M423.144 385.848C421.344 385.848 419.536 385.24 418.032 384C414.632 381.176 414.176 376.136 417 372.736C474.568 303.488 467.944 201.264 401.912 140.024C398.672 137.016 398.48 131.952 401.48 128.72C404.48 125.472 409.544 125.272 412.784 128.288C485.048 195.312 492.296 307.176 429.288 382.968C427.72 384.864 425.44 385.848 423.144 385.848Z" fill="white"/>
<path d="M120 360.744C117.712 360.744 115.448 359.776 113.864 357.888C64.2 298.68 69.496 210.912 125.896 158.088C129.12 155.072 134.192 155.24 137.208 158.456C140.224 161.68 140.056 166.744 136.84 169.76C86.632 216.784 81.928 294.904 126.128 347.6C128.968 350.984 128.528 356.032 125.136 358.872C123.64 360.128 121.816 360.744 120 360.744Z" fill="white"/>
<path d="M151.144 335.64C148.88 335.64 146.632 334.688 145.048 332.824C108.768 290.192 112.08 226.536 152.576 187.904C155.768 184.856 160.824 184.96 163.888 188.168C166.936 191.36 166.816 196.432 163.624 199.48C129.256 232.264 126.456 286.28 157.24 322.448C160.104 325.816 159.696 330.864 156.328 333.728C154.816 335.016 152.976 335.64 151.144 335.64Z" fill="white"/>
<path d="M391.992 360.752C390.176 360.752 388.36 360.136 386.856 358.888C383.472 356.048 383.024 351 385.864 347.616C430.064 294.912 425.368 216.792 375.16 169.776C371.936 166.76 371.768 161.696 374.792 158.472C377.808 155.256 382.88 155.088 386.096 158.104C442.504 210.928 447.784 298.688 398.128 357.904C396.544 359.784 394.28 360.752 391.992 360.752Z" fill="white"/>
<path d="M360.856 335.648C359.024 335.648 357.176 335.024 355.672 333.744C352.312 330.88 351.904 325.832 354.768 322.464C385.568 286.296 382.76 232.28 348.392 199.488C345.2 196.432 345.08 191.368 348.128 188.176C351.168 184.968 356.248 184.864 359.44 187.912C399.944 226.56 403.248 290.216 366.952 332.84C365.368 334.696 363.12 335.648 360.856 335.648Z" fill="white"/>
<path d="M216.24 340.037L215.944 340.44L216.24 340.037C205.211 331.953 193.843 323.616 183.851 313.544C163.55 293.068 156.051 267.371 163.184 243.053L163.184 243.053C170.186 219.163 189.811 203.112 211.975 203.012C228.21 203.642 243.657 209.807 255.665 220.186L255.992 220.469L256.319 220.186C268.32 209.806 283.727 203.642 299.665 203.02C320.372 203.104 339.372 217.309 347.244 238.415L347.244 238.415C356.324 262.731 350.957 282.392 339.317 299.037C327.653 315.717 309.704 329.351 293.634 341.554L293.58 341.595C281.395 350.843 269.831 359.62 261.565 368.785L261.563 368.786C260.155 370.36 258.131 371.26 256 371.26C253.877 371.26 251.86 370.367 250.435 368.793C240.536 357.85 228.715 349.184 216.257 340.05L216.24 340.037ZM211.731 218.004L211.72 218.004L211.709 218.004C194.192 218.094 181.681 233.291 177.584 247.267C172.019 266.244 178.232 286.554 194.517 302.976L194.517 302.976C203.685 312.217 214.11 319.863 225.12 327.939L225.121 327.939C235.501 335.542 246.136 343.347 255.683 352.63L256.029 352.967L256.378 352.633C264.585 344.777 274.337 337.37 284.582 329.59L284.664 329.529C300.71 317.343 316.389 305.437 326.283 291.833C331.246 285.01 334.767 277.743 336.15 269.782C337.534 261.817 336.772 253.187 333.212 243.649L333.212 243.649C328.48 230.98 316.386 218.077 299.954 218.004L299.943 218.004L299.932 218.004C285.573 218.57 271.464 225.133 261.551 235.999L261.55 235.999C258.717 239.11 253.299 239.11 250.466 235.999L250.465 235.999C240.551 225.132 226.433 218.578 211.731 218.004Z" fill="white" stroke="white"/>
</svg>
