<svg width="1595" height="512" viewBox="0 0 1595 512" fill="none" xmlns="http://www.w3.org/2000/svg">
<path d="M343.92 261.6C345.2 311.68 284 332 256 363.76C227.92 332 166.8 311.76 168.08 261.6C167.52 236.64 185.68 210.96 212 210.472C228.8 211.112 244.64 218.472 256 230.96C267.36 218.472 283.2 211.12 300 210.472C326.32 210.96 344.56 236.64 343.92 261.6Z" fill="black"/>
<path d="M88.864 385.848C86.568 385.848 84.288 384.864 82.704 382.968C19.688 307.176 26.936 195.312 99.208 128.288C102.448 125.288 107.512 125.464 110.52 128.72C113.52 131.952 113.336 137.016 110.096 140.024C44.056 201.264 37.432 303.488 95.008 372.736C97.832 376.136 97.368 381.184 93.968 384C92.48 385.24 90.664 385.848 88.864 385.848Z" fill="white"/>
<path d="M423.144 385.848C421.344 385.848 419.536 385.24 418.032 384C414.632 381.176 414.176 376.136 417 372.736C474.568 303.488 467.944 201.264 401.912 140.024C398.672 137.016 398.48 131.952 401.48 128.72C404.48 125.472 409.544 125.272 412.784 128.288C485.048 195.312 492.296 307.176 429.288 382.968C427.72 384.864 425.44 385.848 423.144 385.848Z" fill="white"/>
<path d="M120 360.744C117.712 360.744 115.448 359.776 113.864 357.888C64.2 298.68 69.496 210.912 125.896 158.088C129.12 155.072 134.192 155.24 137.208 158.456C140.224 161.68 140.056 166.744 136.84 169.76C86.632 216.784 81.928 294.904 126.128 347.6C128.968 350.984 128.528 356.032 125.136 358.872C123.64 360.128 121.816 360.744 120 360.744Z" fill="white"/>
<path d="M151.144 335.64C148.88 335.64 146.632 334.688 145.048 332.824C108.768 290.192 112.08 226.536 152.576 187.904C155.768 184.856 160.824 184.96 163.888 188.168C166.936 191.36 166.816 196.432 163.624 199.48C129.256 232.264 126.456 286.28 157.24 322.448C160.104 325.816 159.696 330.864 156.328 333.728C154.816 335.016 152.976 335.64 151.144 335.64Z" fill="white"/>
<path d="M391.992 360.752C390.176 360.752 388.36 360.136 386.856 358.888C383.472 356.048 383.024 351 385.864 347.616C430.064 294.912 425.368 216.792 375.16 169.776C371.936 166.76 371.768 161.696 374.792 158.472C377.808 155.256 382.88 155.088 386.096 158.104C442.504 210.928 447.784 298.688 398.128 357.904C396.544 359.784 394.28 360.752 391.992 360.752Z" fill="white"/>
<path d="M360.856 335.648C359.024 335.648 357.176 335.024 355.672 333.744C352.312 330.88 351.904 325.832 354.768 322.464C385.568 286.296 382.76 232.28 348.392 199.488C345.2 196.432 345.08 191.368 348.128 188.176C351.168 184.968 356.248 184.864 359.44 187.912C399.944 226.56 403.248 290.216 366.952 332.84C365.368 334.696 363.12 335.648 360.856 335.648Z" fill="white"/>
<path d="M216.24 340.037L215.944 340.44L216.24 340.037C205.211 331.953 193.843 323.616 183.851 313.544C163.55 293.068 156.051 267.371 163.184 243.053L163.184 243.053C170.186 219.163 189.811 203.112 211.975 203.012C228.21 203.642 243.657 209.807 255.665 220.186L255.992 220.469L256.319 220.186C268.32 209.806 283.727 203.642 299.665 203.02C320.372 203.104 339.372 217.309 347.244 238.415L347.244 238.415C356.324 262.731 350.957 282.392 339.317 299.037C327.653 315.717 309.704 329.351 293.634 341.554L293.58 341.595C281.395 350.843 269.831 359.62 261.565 368.785L261.563 368.786C260.155 370.36 258.131 371.26 256 371.26C253.877 371.26 251.86 370.367 250.435 368.793C240.536 357.85 228.715 349.184 216.257 340.05L216.24 340.037ZM211.731 218.004L211.72 218.004L211.709 218.004C194.192 218.094 181.681 233.291 177.584 247.267C172.019 266.244 178.232 286.554 194.517 302.976L194.517 302.976C203.685 312.217 214.11 319.863 225.12 327.939L225.121 327.939C235.501 335.542 246.136 343.347 255.683 352.63L256.029 352.967L256.378 352.633C264.585 344.777 274.337 337.37 284.582 329.59L284.664 329.529C300.71 317.343 316.389 305.437 326.283 291.833C331.246 285.01 334.767 277.743 336.15 269.782C337.534 261.817 336.772 253.187 333.212 243.649L333.212 243.649C328.481 230.98 316.386 218.077 299.954 218.004L299.943 218.004L299.932 218.004C285.573 218.57 271.464 225.133 261.551 235.999L261.55 235.999C258.717 239.11 253.299 239.11 250.466 235.999L250.465 235.999C240.551 225.132 226.433 218.578 211.731 218.004Z" fill="white" stroke="white"/>
<path d="M544.52 141.355H548.621C555.457 141.355 560.73 145.994 564.441 155.271C597.352 263.084 613.807 317.723 613.807 319.188V320.066C613.123 323.777 611.316 325.633 608.387 325.633H607.361C603.65 325.633 600.672 320.652 598.426 310.691C569.129 212.254 553.357 160.447 551.111 155.271L546.131 153.367C541.15 154.441 538.66 156.932 538.66 160.838C574.109 270.018 593.201 327.781 595.936 334.129C599.256 337.742 602.381 339.549 605.311 339.549H608.826C615.76 339.549 620.887 332.225 624.207 317.576L687.049 143.406C688.416 142.039 689.734 141.355 691.004 141.355H692.908C696.229 142.039 697.889 143.699 697.889 146.336V147.801C697.889 148.777 679.627 200.389 643.104 302.635C634.119 329.197 628.65 342.479 626.697 342.479C621.814 348.826 616.004 352 609.266 352H604.871C593.836 352 585.682 344.188 580.408 328.562C544.568 219.383 526.648 164.109 526.648 162.742V158.348C526.648 151.609 531.287 146.092 540.564 141.795C541.834 141.502 543.152 141.355 544.52 141.355ZM748.133 132.127H751.648C760.926 132.127 767.713 137.889 772.01 149.412C772.303 150.486 772.449 151.658 772.449 152.928V155.564C772.449 158.201 770.496 159.812 766.59 160.398C763.367 160.398 761.463 157.029 760.877 150.291C758.045 145.213 754.383 142.674 749.891 142.674C743.25 142.674 739.246 146.824 737.879 155.125C737.879 161.961 742.762 165.916 752.527 166.99C754.285 168.357 755.164 169.822 755.164 171.385V172.703C755.164 175.438 753.26 177.098 749.451 177.684C739.686 177.684 732.605 172.215 728.211 161.277C727.625 160.105 727.332 158.494 727.332 156.443V152.928C727.332 143.553 733.094 136.766 744.617 132.566C745.691 132.273 746.863 132.127 748.133 132.127ZM763.514 192.186C767.322 192.771 769.227 194.383 769.227 197.02V337.938C767.469 350.34 761.463 356.541 751.209 356.541H748.133C740.418 356.541 734.949 352.146 731.727 343.357C730.848 341.795 730.408 338.23 730.408 332.664V269.529C730.408 264.549 732.166 262.059 735.682 262.059C739.588 262.547 741.541 264.158 741.541 266.893V334.861C741.541 342.283 744.324 345.994 749.891 345.994C755.457 345.311 758.24 342.625 758.24 337.938V199.656C758.24 194.676 759.998 192.186 763.514 192.186ZM805.555 131.395H808.045C810.779 131.395 812.342 133.396 812.732 137.4V169.627C812.732 209.959 812.586 266.648 812.293 339.695C812.098 340.281 812 340.721 812 341.014C812.781 345.506 815.027 347.752 818.738 347.752C822.449 347.361 824.305 345.701 824.305 342.771C823.133 309.666 822.547 290.672 822.547 285.789V275.682C822.547 239.939 830.457 217.576 846.277 208.592C857.117 200.975 869.422 197.166 883.191 197.166H886.561C913.221 197.166 933.045 211.473 946.033 240.086C950.232 252.293 952.332 263.719 952.332 274.363V281.98C952.332 306.395 942.859 327.928 923.914 346.58C909.949 356.443 896.668 361.375 884.07 361.375H876.893C864.783 361.375 853.162 357.42 842.029 349.51C840.662 348.143 839.979 346.58 839.979 344.822C840.857 341.697 842.42 340.135 844.666 340.135H845.838C846.521 340.135 849.793 341.99 855.652 345.701C863.172 349.119 870.398 350.828 877.332 350.828H878.943C879.627 350.828 880.213 350.926 880.701 351.121C881.189 350.926 881.727 350.828 882.312 350.828H884.07C898.035 350.828 911.17 344.578 923.475 332.078C935.682 316.551 941.785 299.705 941.785 281.541V279.051C941.785 278.465 941.932 277.928 942.225 277.439C941.932 276.854 941.785 276.268 941.785 275.682V273.484C941.785 251.512 934.021 233.299 918.494 218.846C908.631 211.521 898.279 207.859 887.439 207.859H882.752C867.615 207.859 854.92 213.23 844.666 223.973C836.951 233.348 833.094 250.584 833.094 275.682V286.668C833.094 291.453 833.68 310.398 834.852 343.504C834.852 349.754 831.043 354.441 823.426 357.566L818.299 358.445C810.682 358.445 805.311 354.197 802.186 345.701C802.186 345.018 802.039 344.432 801.746 343.943C802.039 286.424 802.186 240.623 802.186 206.541V136.082C802.186 134.227 803.309 132.664 805.555 131.395ZM1048.87 198.191H1055.31C1076.99 198.191 1093.79 208.25 1105.7 228.367C1111.85 239.402 1114.93 252.586 1114.93 267.918V273.484C1114.93 279.93 1110.39 283.982 1101.31 285.643H1020.3C1010.63 284.471 1005.8 279.783 1005.8 271.58C1007.17 262.107 1011.85 257.371 1019.86 257.371H1085.93C1088.17 257.371 1089.64 258.885 1090.32 261.912V263.084C1090.32 265.33 1088.71 266.795 1085.49 267.479H1020.3C1017.37 267.479 1015.91 268.846 1015.91 271.58C1016.1 274.217 1017.42 275.535 1019.86 275.535H1101.31C1103.65 275.535 1104.82 274.461 1104.82 272.312V267.479C1104.82 240.135 1094.52 221.629 1073.91 211.961C1067.37 209.52 1061.32 208.299 1055.75 208.299H1053.7C1053.11 208.299 1052.58 208.152 1052.09 207.859C1051.6 208.152 1051.06 208.299 1050.48 208.299H1049.3C1025.28 208.299 1007.56 221.58 996.131 248.143C992.908 259.373 991.297 269.334 991.297 278.025C991.297 310.057 1005.8 331.639 1034.8 342.771C1043.88 345.213 1051.4 346.434 1057.36 346.434C1071.03 346.434 1085.93 342.674 1102.04 335.154H1102.48C1105.7 335.936 1107.31 337.547 1107.31 339.988V340.428C1107.31 345.506 1095.2 350.486 1070.98 355.369C1068.05 355.857 1064.73 356.102 1061.02 356.102H1054.14C1036.17 356.102 1019.23 349.119 1003.31 335.154C988.855 320.213 981.629 302.635 981.629 282.42V275.096C981.629 252.049 989.393 232.469 1004.92 216.355C1017.91 204.246 1032.56 198.191 1048.87 198.191ZM1158.73 141.502H1282.36C1291.83 141.502 1297.64 147.508 1299.79 159.52C1299.79 164.695 1292.81 176.512 1278.85 194.969C1273.38 203.758 1245.79 244.627 1196.08 317.576V318.016H1279.87C1290.52 318.016 1297.16 321.531 1299.79 328.562C1300.48 329.832 1300.82 331.639 1300.82 333.982V336.473C1300.82 345.359 1295.5 350.535 1284.85 352H1160.63C1151.45 352 1145.98 346.336 1144.23 335.008V332.518C1144.23 329.002 1150.38 318.699 1162.68 301.609L1255.99 164.061C1256.48 164.061 1257.12 163.719 1257.9 163.035H1260.39C1264.1 163.523 1265.96 165.33 1265.96 168.455V169.48C1265.96 171.434 1249.99 195.359 1218.05 241.258L1156.68 333.104C1156.68 333.689 1156.53 333.982 1156.24 333.982C1156.24 337.986 1158.88 339.988 1164.15 339.988H1281.34C1286.32 339.988 1288.81 338.523 1288.81 335.594C1288.81 332.273 1286.32 330.613 1281.34 330.613H1183.19C1180.16 330.613 1178.31 328.416 1177.62 324.021C1178.21 322.166 1196.52 294.773 1232.56 241.844C1265.76 193.309 1283.88 166.355 1286.9 160.984C1287.2 160.398 1287.34 159.715 1287.34 158.934C1286.46 155.613 1284.8 153.953 1282.36 153.953H1162.24C1156.19 153.953 1153.16 151.658 1153.16 147.068C1154.33 143.357 1156.19 141.502 1158.73 141.502ZM1416.25 143.113H1421.08C1434.85 143.113 1444.57 155.125 1450.23 179.148C1480.21 265.867 1497.5 316.893 1502.09 332.225V337.645C1502.09 345.555 1496.52 350.34 1485.39 352H1481.87C1471.42 352 1464.2 342.771 1460.19 324.314C1453.75 304.881 1449.3 295.164 1446.86 295.164C1439.83 288.328 1429.77 284.91 1416.69 284.91C1409.46 284.91 1397.94 286.717 1382.12 290.33C1379.38 290.33 1377.58 288.328 1376.7 284.324V283.885C1376.7 279.393 1383.09 276.414 1395.89 274.949C1400.67 273.68 1406.43 273.045 1413.17 273.045H1420.64C1438.71 273.045 1452.53 280.271 1462.1 294.725C1463.56 297.459 1468.49 311.277 1476.89 336.18C1478.55 338.523 1480.21 339.695 1481.87 339.695H1485.83C1488.46 339.695 1489.93 338.182 1490.22 335.154C1454.38 227.732 1434.46 169.627 1430.46 160.838C1427.82 157.225 1424.21 155.418 1419.62 155.418H1416.69C1409.17 155.418 1403.55 163.182 1399.84 178.709L1341.1 350.096C1339.73 351.365 1338.42 352 1337.15 352H1335.24C1331.92 351.316 1330.26 349.656 1330.26 347.02V345.555C1332.21 338.816 1352.48 278.904 1391.05 165.818C1396.81 150.682 1405.21 143.113 1416.25 143.113ZM1536.51 141.355H1538.56C1541.88 142.039 1543.54 143.699 1543.54 146.336V329.588C1543.54 336.229 1545.35 339.549 1548.96 339.549H1551.89C1555.6 339.549 1557.46 336.229 1557.46 329.588V146.336C1558.14 143.016 1559.8 141.355 1562.44 141.355H1564.34C1567.66 142.039 1569.32 143.699 1569.32 146.336V334.129C1567.37 346.043 1561.56 352 1551.89 352H1548.96C1539.29 352 1533.48 346.043 1531.53 334.129V146.336C1532.21 143.016 1533.88 141.355 1536.51 141.355Z" fill="white"/>
</svg>
